<svg xmlns="http://www.w3.org/2000/svg" viewBox="0 0 100 100" width="100%" height="100%">
  <!-- Neo-Brutalist Drop Shadow -->
  <rect x="22" y="22" width="60" height="60" fill="#080808" />
  
  <!-- Main Box -->
  <rect x="14" y="14" width="60" height="60" fill="#ff0000" stroke="#080808" stroke-width="4" />
  
  <!-- "E" -->
  <path d="M 22 31 h 14 v 6 h -8 v 4 h 7 v 6 h -7 v 4 h 8 v 6 h -14 Z" fill="#f5f5f5" stroke="#080808" stroke-width="2" stroke-linejoin="miter" />
  
  <!-- "B" -->
  <path d="M 40 31 h 9 c 5 0, 7 1.5, 7 5.5 c 0 3, -1.5 4.5, -3 5 c 2.5 0.5, 4 2, 4 5.5 c 0 4, -2.5 6, -8 6 h -9 Z m 6 5.5 v 4 h 3 c 2 0, 2.5 -1, 2.5 -2 c 0 -1, -0.5 -2, -2.5 -2 Z m 0 8.5 v 5 h 3 c 2 0, 3 -1, 3 -2.5 c 0 -1.5, -1 -2.5, -3 -2.5 Z" fill="#f5f5f5" stroke="#080808" stroke-width="2" stroke-linejoin="miter" />
  
  <!-- "." -->
  <path d="M 60 51 h 6 v 6 h -6 Z" fill="#bbd5da" stroke="#080808" stroke-width="2" stroke-linejoin="miter" />
</svg>